<?xml version="1.0" encoding="UTF-8"?><svg id="word" xmlns="http://www.w3.org/2000/svg" viewBox="0 0 838.244 192.5"><g id="letter-b"><path id="block-6" d="M0,75V3.75C0,1.25,1.197,0,3.592,0h27.962c1.09,0,1.974.884,1.974,1.974v71.776c0,1.456.607,2.275,1.825,2.46.329.05.57.341.57.674v1.361c0,.279-.226.505-.505.505H3.592c-2.395,0-3.592-1.25-3.592-3.75Z" fill="#e8b800"/><path id="block-5" d="M3.75,81.25h33.29c.254,0,.46.206.46.46v1.498c0,.279-.198.536-.475.567-1.351.15-2.025.977-2.025,2.475v70.828c0,1.614-1.308,2.922-2.922,2.922H3.75c-2.071,0-3.75-1.679-3.75-3.75v-71.25c0-2.071,1.679-3.75,3.75-3.75Z" fill="#d4382f"/><rect id="block-4" x="32.5" y="76.25" width="32.123" height="2.5" rx=".7" ry=".7" fill="#e8b800"/><rect id="block-3" x="34" y="81.25" width="55.339" height="2.5" rx=".859" ry=".859" fill="#d4382f"/><path id="block-2" d="M93.399,78.75h-31.971c-.331,0-.599-.268-.599-.599v-1.277c0-.326.236-.616.56-.656,1.364-.167,1.975-.989,1.835-2.468-.64-10.5-3.435-19.207-8.382-26.125-4.951-6.914-11.256-10.957-18.919-12.125-1.424,0-2.212.664-2.367,1.987-.035.297-.304.513-.603.513h-1.147c-.372,0-.673-.301-.673-.673V1.899c0-1.044.856-1.901,1.9-1.875,11.836.3,22.38,3.417,31.628,9.351,9.737,6.25,17.441,15.043,23.11,26.375,5.665,11.336,8.741,24.418,9.22,39.25,0,2.5-1.197,3.75-3.592,3.75Z" fill="#e8b800"/><path id="block-1" d="M125,85c-.668,14.836-4.961,27.918-12.875,39.25-7.918,11.336-18.75,20.125-32.5,26.375-13.239,6.018-28.295,9.138-45.163,9.362-1.078.014-1.962-.867-1.962-1.945v-32.292s0-2.905,0-2.905c0-.329.266-.595.595-.595h1.262c.336,0,.635.245.674.579.165,1.431.987,2.071,2.469,1.921,9.664-.332,18.25-2.207,25.75-5.625,7.5-3.414,13.539-7.957,18.125-13.625,4.582-5.664,7.375-12.082,8.375-19.25,0-1.497-.676-2.323-2.023-2.475-.279-.031-.477-.289-.477-.569v-1.425c0-.293.238-.531.531-.531h33.469c2.5,0,3.75,1.25,3.75,3.75Z" fill="#d4382f"/></g><g id="letter-r"><g id="block-2-2"><path d="M132.499,93.25c.332-10.664,3.125-20.5,8.375-29.5s12.289-16.289,21.125-21.875c8.832-5.582,18.582-8.707,29.25-9.375,2.5,0,3.75,1.25,3.75,3.75v30c0,.5-.086.836-.25,1-.168.168-.418.336-.75.5h-.75c-4.5.168-8.668,1.418-12.5,3.75-3.836,2.336-6.918,5.461-9.25,9.375-2.336,3.918-3.668,8.125-4,12.625,0,.668-.125,1.086-.375,1.25-.25.168-.711.25-1.375.25h-31.5c-1.168,0-1.75-.582-1.75-1.75Z" fill="#0557ad"/><path d="M133.749,95c-.836,0-1.25-.414-1.25-1.25v-60c0-.832.414-1.25,1.25-1.25s1.25.418,1.25,1.25v60c0,.836-.418,1.25-1.25,1.25Z" fill="#0557ad"/></g><path id="block-1-2" d="M136.249,159.717c-2.333,0-3.466-1.134-3.466-3.467v-57c0-1.015.452-1.467,1.466-1.467h31.5c1.014,0,1.466.452,1.466,1.467v57c0,2.333-1.134,3.467-3.466,3.467h-27.5Z" fill="#2f2c2c"/></g><g id="letter-a"><path id="block-5-2" d="M263.252,36.25v29.5c0,.668-.125,1.125-.375,1.375s-.711.375-1.375.375c-4.5.336-8.668,1.668-12.5,4-3.836,2.336-6.961,5.461-9.375,9.375-2.418,3.918-3.711,8.125-3.875,12.625,0,1-.586,1.5-1.75,1.5h-29.5c-2.5,0-3.75-1.25-3.75-3.75.664-10.332,3.664-19.875,9-28.625,5.332-8.75,12.375-15.789,21.125-21.125,8.75-5.332,18.289-8.332,28.625-9,2.5,0,3.75,1.25,3.75,3.75Z" fill="#e8b800"/><path id="block-4-2" d="M259.502,160c-10.336-.664-19.875-3.664-28.625-9-8.75-5.332-15.793-12.375-21.125-21.125-5.336-8.75-8.336-18.289-9-28.625,0-2.5,1.25-3.75,3.75-3.75h29.75c.664,0,1.125.125,1.375.375s.375.711.375,1.375c.164,4.5,1.457,8.711,3.875,12.625,2.414,3.918,5.582,7.043,9.5,9.375,3.914,2.336,8.207,3.586,12.875,3.75h3.5v2.5c-1.668,0-2.5.836-2.5,2.5v26.25c0,2.5-1.25,3.75-3.75,3.75Z" fill="#0557ad"/><path id="block-3-2" d="M263.252,126.25c0-.832.414-1.25,1.25-1.25h1.25c4.832,0,9.332-1.164,13.5-3.5,4.164-2.332,7.5-5.539,10-9.625,2.5-4.082,3.832-8.457,4-13.125,0-.832.414-1.25,1.25-1.25s1.25.418,1.25,1.25c-.168,5.336-1.625,10.168-4.375,14.5-2.75,4.336-6.375,7.793-10.875,10.375-4.5,2.586-9.418,3.875-14.75,3.875h-1.25c-.836,0-1.25-.414-1.25-1.25Z" fill="#0557ad"/><g id="block-2-3"><path d="M327.002,32.5c.832,0,1.25.418,1.25,1.25v60c0,.836-.418,1.25-1.25,1.25s-1.25-.414-1.25-1.25v-60c0-.832.414-1.25,1.25-1.25Z" fill="#d4382f"/><path d="M326.502,95h-31.75c-1,0-1.5-.582-1.5-1.75-.336-4.5-1.668-8.664-4-12.5-2.336-3.832-5.461-6.957-9.375-9.375-3.918-2.414-8.125-3.707-12.625-3.875-1,0-1.5-.582-1.5-1.75v-29.5c0-2.5,1.25-3.75,3.75-3.75,10.664.668,20.414,3.793,29.25,9.375,8.832,5.586,15.875,12.875,21.125,21.875s8.039,18.836,8.375,29.5c0,1.168-.586,1.75-1.75,1.75Z" fill="#d4382f"/></g><path id="block-1-3" d="M293.252,156.25v-57c0-1.164.582-1.75,1.75-1.75h29.5c2.5,0,3.75,1.25,3.75,3.75v55c0,2.5-1.25,3.75-3.75,3.75h-27.5c-2.5,0-3.75-1.25-3.75-3.75Z" fill="#e8b800"/></g><g id="letter-s"><path id="block-2-4" d="M341.989,159.717c-2.326-.003-3.457-1.138-3.457-3.467v-29.5c0-.729.159-1.041.292-1.175.215-.216.557-.402,1.015-.557,5.815-.321,10.804-2.964,14.755-7.84,3.935-4.857,6.101-10.97,6.438-18.165,0-.58.167-1.23,1.467-1.23h29.5c2.333,0,3.466,1.134,3.466,3.467-.495,10.562-3.133,20.278-7.84,28.863-4.704,8.585-11.107,15.574-19.032,20.774-7.923,5.2-16.874,8.17-26.604,8.829Z" fill="#2f2c2c"/><path id="block-1-4" d="M364.499,94.717c-2.333,0-3.466-1.134-3.466-3.467.495-10.559,3.133-20.274,7.84-28.864,4.708-8.586,11.111-15.575,19.032-20.773,7.919-5.197,16.874-8.168,26.613-8.829,2.313,0,3.447,1.134,3.447,3.467v29.5c0,.577-.101.983-.292,1.175-.147.147-.482.362-1.242.55-5.841.332-10.789,2.975-14.654,7.85-3.854,4.858-5.978,10.97-6.311,18.163,0,.579-.167,1.229-1.467,1.229h-29.5Z" fill="#2f2c2c"/></g><g id="letter-p"><path id="block-4-3" d="M432.25,62.625c5.332-8.75,12.375-15.789,21.125-21.125,8.75-5.332,18.289-8.332,28.625-9,2.5,0,3.75,1.25,3.75,3.75v29.5c0,1.168-.5,1.75-1.5,1.75-4.5.168-8.711,1.461-12.625,3.875-3.918,2.418-7.043,5.543-9.375,9.375-2.336,3.836-3.668,8-4,12.5,0,.668-.125,1.125-.375,1.375s-.711.375-1.375.375h-29.5c-2.5,0-3.75-1.25-3.75-3.75.664-10.332,3.664-19.875,9-28.625Z" fill="#e8b800"/><path id="block-3-3" d="M423.25,188.75v-87.5c0-2.5,1.25-3.75,3.75-3.75h29.5c1.164,0,1.75.586,1.75,1.75v89.5c0,2.5-1.25,3.75-3.75,3.75h-27.5c-2.5,0-3.75-1.25-3.75-3.75Z" fill="#e8b800"/><g id="block-2-5"><path id="block-3-4" d="M485.75,127.217c-5.263,0-10.178-1.291-14.608-3.838-4.44-2.547-8.066-6.007-10.777-10.28-2.712-4.273-4.169-9.104-4.331-14.357,0-.669.289-.958.967-.958s.967.289.967.967c.165,4.701,1.524,9.163,4.041,13.273,2.514,4.107,5.913,7.379,10.104,9.724,4.183,2.347,8.771,3.536,13.639,3.536h1.25c.678,0,.967.289.967.967s-.289.967-.967.967h-1.25Z" fill="#2f2c2c"/><path id="block-2-6" d="M491.992,159.717c-2.327-.003-3.458-1.137-3.458-3.467v-26.25c0-1.724-.862-2.679-2.5-2.775v-1.941h3.217c4.702-.165,9.079-1.44,13.021-3.79,3.937-2.346,7.166-5.531,9.596-9.47,2.427-3.935,3.829-8.31,4.167-13.003,0-.44.099-.751.292-.945.191-.19.598-.292,1.175-.292h29.5c2.333,0,3.467,1.134,3.467,3.467-.661,10.221-3.676,19.808-8.959,28.478-5.29,8.675-12.365,15.75-21.03,21.03-8.667,5.285-18.251,8.3-28.486,8.959Z" fill="#2f2c2c"/></g><path id="block-1-5" d="M520.625,41.5c8.75,5.336,15.789,12.375,21.125,21.125,5.332,8.75,8.332,18.293,9,28.625,0,2.5-1.25,3.75-3.75,3.75h-29.5c-1.168,0-1.75-.5-1.75-1.5-.168-4.5-1.461-8.707-3.875-12.625-2.418-3.914-5.543-7.039-9.375-9.375-3.836-2.332-8-3.664-12.5-4-.668,0-1.125-.125-1.375-.375s-.375-.707-.375-1.375v-29.5c0-2.5,1.25-3.75,3.75-3.75,10.332.668,19.875,3.668,28.625,9Z" fill="#0557ad"/></g><g id="letter-a-2"><path id="block-5-3" d="M620.748,36.25v29.5c0,.668-.125,1.125-.375,1.375s-.711.375-1.375.375c-4.5.336-8.668,1.668-12.5,4-3.836,2.336-6.961,5.461-9.375,9.375-2.418,3.918-3.711,8.125-3.875,12.625,0,1-.586,1.5-1.75,1.5h-29.5c-2.5,0-3.75-1.25-3.75-3.75.664-10.332,3.664-19.875,9-28.625,5.332-8.75,12.375-15.789,21.125-21.125,8.75-5.332,18.289-8.332,28.625-9,2.5,0,3.75,1.25,3.75,3.75Z" fill="#d4382f"/><path id="block-4-4" d="M616.998,160c-10.336-.664-19.875-3.664-28.625-9-8.75-5.332-15.793-12.375-21.125-21.125-5.336-8.75-8.336-18.289-9-28.625,0-2.5,1.25-3.75,3.75-3.75h29.75c.664,0,1.125.125,1.375.375s.375.711.375,1.375c.164,4.5,1.457,8.711,3.875,12.625,2.414,3.918,5.582,7.043,9.5,9.375,3.914,2.336,8.207,3.586,12.875,3.75h3.5v2.5c-1.668,0-2.5.836-2.5,2.5v26.25c0,2.5-1.25,3.75-3.75,3.75Z" fill="#e8b800"/><path id="block-3-5" d="M620.748,126.25c0-.832.414-1.25,1.25-1.25h1.25c4.832,0,9.332-1.164,13.5-3.5,4.164-2.332,7.5-5.539,10-9.625,2.5-4.082,3.832-8.457,4-13.125,0-.832.414-1.25,1.25-1.25s1.25.418,1.25,1.25c-.168,5.336-1.625,10.168-4.375,14.5-2.75,4.336-6.375,7.793-10.875,10.375-4.5,2.586-9.418,3.875-14.75,3.875h-1.25c-.836,0-1.25-.414-1.25-1.25Z" fill="#e8b800"/><path id="block-2-7" d="M654.499,159.717c-2.333,0-3.467-1.134-3.467-3.467v-57c0-1.015.452-1.467,1.467-1.467h29.5c2.333,0,3.467,1.134,3.467,3.467v55c0,2.333-1.134,3.467-3.467,3.467h-27.5Z" fill="#2f2c2c"/><g id="block-1-6"><path d="M683.998,95h-31.75c-1,0-1.5-.582-1.5-1.75-.336-4.5-1.668-8.664-4-12.5-2.336-3.832-5.461-6.957-9.375-9.375-3.918-2.414-8.125-3.707-12.625-3.875-1,0-1.5-.582-1.5-1.75v-29.5c0-2.5,1.25-3.75,3.75-3.75,10.664.668,20.414,3.793,29.25,9.375,8.832,5.586,15.875,12.875,21.125,21.875s8.039,18.836,8.375,29.5c0,1.168-.586,1.75-1.75,1.75Z" fill="#e8b800"/><path d="M684.498,32.5c.832,0,1.25.418,1.25,1.25v60c0,.836-.418,1.25-1.25,1.25s-1.25-.414-1.25-1.25v-60c0-.832.414-1.25,1.25-1.25Z" fill="#e8b800"/></g></g><g id="letter-r-2"><path id="block-3-6" d="M695.745,93.25c.332-10.664,3.125-20.5,8.375-29.5s12.289-16.289,21.125-21.875c8.832-5.582,18.582-8.707,29.25-9.375,2.5,0,3.75,1.25,3.75,3.75v30c0,.5-.086.836-.25,1-.168.168-.418.336-.75.5h-.75c-4.5.168-8.668,1.418-12.5,3.75-3.836,2.336-6.918,5.461-9.25,9.375-2.336,3.918-3.668,8.125-4,12.625,0,.668-.125,1.086-.375,1.25-.25.168-.711.25-1.375.25h-31.5c-1.168,0-1.75-.582-1.75-1.75Z" fill="#0557ad"/><path id="block-2-8" d="M696.995,95c-.836,0-1.25-.414-1.25-1.25v-60c0-.832.414-1.25,1.25-1.25s1.25.418,1.25,1.25v60c0,.836-.418,1.25-1.25,1.25Z" fill="#0557ad"/><path id="block-1-7" d="M697.495,97.5h31.5c1.164,0,1.75.586,1.75,1.75v57c0,2.5-1.25,3.75-3.75,3.75h-27.5c-2.5,0-3.75-1.25-3.75-3.75v-57c0-1.164.582-1.75,1.75-1.75Z" fill="#d4382f"/></g><g id="letter-z"><g id="block-1-8"><path d="M768.244,63.75v-27.5c0-2.5,1.25-3.75,3.75-3.75h62.5c2.5,0,3.75,1.25,3.75,3.75v33.75h-2.5c0-1.664-.836-2.5-2.5-2.5h-61.25c-2.5,0-3.75-1.25-3.75-3.75Z" fill="#e8b800"/><path d="M817.244,136.125c-4.336,2.418-7.75,5.711-10.25,9.875-2.5,4.168-3.75,8.836-3.75,14h-31.25c-2.5,0-3.75-1.25-3.75-3.75.5-11.832,3.457-22.164,8.875-31,5.414-8.832,12.832-15.664,22.25-20.5,9.414-4.832,20.289-7.25,32.625-7.25v35c-5.5,0-10.418,1.211-14.75,3.625Z" fill="#e8b800"/><path d="M835.744,95h2.5v35.75c0,1.168-.586,1.75-1.75,1.75h-4.5v-35h1.25c1.664,0,2.5-.832,2.5-2.5Z" fill="#e8b800"/><path d="M836.994,110.25c-.836,0-1.25-.414-1.25-1.25V43.5c0-.832.414-1.25,1.25-1.25s1.25.418,1.25,1.25v65.5c0,.836-.418,1.25-1.25,1.25Z" fill="#e8b800"/><path d="M798.494,158.75c0-.832.414-1.25,1.25-1.25h37.25c.832,0,1.25.418,1.25,1.25s-.418,1.25-1.25,1.25h-37.25c-.836,0-1.25-.414-1.25-1.25Z" fill="#e8b800"/></g></g></svg>