<?xml version="1.0" encoding="UTF-8"?>
<svg id="word" xmlns="http://www.w3.org/2000/svg" width="294.59mm" height="67.01mm" viewBox="0 0 835.07 189.96">
  <g id="letter-r">
    <path id="block-3" d="M146.79,92.02c.33-10.52,3.08-20.23,8.26-29.11,5.18-8.88,12.13-16.07,20.85-21.59,8.72-5.51,18.34-8.59,28.86-9.25,2.47,0,3.7,1.23,3.7,3.7v44.65c0,.33-.08.62-.25.86-.17.25-.41.37-.74.37h-.74c-1.81.17-3.5.74-5.06,1.73-1.57.99-2.84,2.26-3.82,3.82-.99,1.57-1.57,3.33-1.73,5.3,0,.49-.17.82-.49.99-.33.17-.74.25-1.23.25h-45.89c-1.15,0-1.73-.57-1.73-1.73Z"/>
    <path id="block-2" d="M148.02,93.75c-.82,0-1.23-.41-1.23-1.23v-59.21c0-.82.41-1.23,1.23-1.23s1.23.41,1.23,1.23v59.21c0,.82-.41,1.23-1.23,1.23Z"/>
    <path id="block-1" d="M148.51,96.21h45.89c1.15,0,1.73.58,1.73,1.73v56.25c0,2.47-1.23,3.7-3.7,3.7h-41.94c-2.47,0-3.7-1.23-3.7-3.7v-56.25c0-1.15.57-1.73,1.73-1.73Z"/>
  </g>
  <g id="letter-a">
    <path id="block-5" d="M275.07,35.77v43.91c0,.66-.12,1.11-.37,1.36-.25.25-.7.37-1.36.37-1.81.17-3.45.78-4.93,1.85-1.48,1.07-2.76,2.39-3.82,3.95-1.07,1.57-1.69,3.25-1.85,5.06,0,.99-.58,1.48-1.73,1.48h-43.91c-2.47,0-3.7-1.23-3.7-3.7.65-10.2,3.62-19.61,8.88-28.25,5.26-8.63,12.21-15.58,20.85-20.85,8.63-5.26,18.05-8.22,28.25-8.88,2.47,0,3.7,1.23,3.7,3.7Z"/>
    <g id="block-4">
      <path d="M271.37,157.89c-10.2-.65-19.61-3.62-28.25-8.88-8.63-5.26-15.58-12.21-20.85-20.85-5.27-8.63-8.23-18.05-8.88-28.25,0-2.47,1.23-3.7,3.7-3.7h43.91c.65,0,1.11.12,1.36.37.25.25.37.7.37,1.36.33,1.81,1.03,3.5,2.1,5.06,1.07,1.57,2.38,2.84,3.95,3.82,1.56.99,3.33,1.57,5.3,1.73h3.45v2.47c-1.65,0-2.47.82-2.47,2.47v40.71c0,2.47-1.23,3.7-3.7,3.7Z"/>
      <path d="M275.07,109.78c0-.82.41-1.23,1.23-1.23h1.23c2.14,0,4.11-.49,5.92-1.48,1.81-.99,3.29-2.34,4.44-4.07,1.15-1.73,1.81-3.58,1.97-5.55,0-.82.41-1.23,1.23-1.23s1.23.41,1.23,1.23c-.17,2.47-.95,4.77-2.34,6.91-1.4,2.14-3.17,3.79-5.3,4.93-2.14,1.15-4.53,1.73-7.15,1.73h-1.23c-.82,0-1.23-.41-1.23-1.23Z"/>
    </g>
    <path id="block-3-2" data-name="block-3" d="M337.48,93.75h-46.13c-.99,0-1.48-.57-1.48-1.73-.33-1.81-.99-3.49-1.97-5.06-.99-1.56-2.26-2.84-3.82-3.82-1.57-.99-3.25-1.56-5.06-1.73-.99,0-1.48-.57-1.48-1.73v-43.91c0-2.47,1.23-3.7,3.7-3.7,10.52.66,20.14,3.74,28.86,9.25,8.72,5.51,15.67,12.7,20.85,21.59,5.18,8.88,7.93,18.59,8.26,29.11,0,1.15-.58,1.73-1.73,1.73Z"/>
    <path id="block-2-2" data-name="block-2" d="M289.87,154.19v-56.25c0-1.15.57-1.73,1.73-1.73h43.91c2.47,0,3.7,1.23,3.7,3.7v54.27c0,2.47-1.23,3.7-3.7,3.7h-41.94c-2.47,0-3.7-1.23-3.7-3.7Z"/>
    <path id="block-1-2" data-name="block-1" d="M337.98,32.07c.82,0,1.23.41,1.23,1.23v59.21c0,.82-.41,1.23-1.23,1.23s-1.23-.41-1.23-1.23v-59.21c0-.82.41-1.23,1.23-1.23Z"/>
  </g>
  <g id="letter-s">
    <path id="block-2-3" data-name="block-2" d="M349.08,154.19v-43.91c0-.65.08-1.11.25-1.36.16-.25.57-.45,1.23-.62,2.3-.33,4.19-1.44,5.67-3.33,1.48-1.89,2.38-4.32,2.71-7.28,0-.99.57-1.48,1.73-1.48h43.91c2.47,0,3.7,1.23,3.7,3.7-.49,10.53-3.21,20.07-8.14,28.62-4.93,8.55-11.51,15.42-19.74,20.6-8.23,5.18-17.43,8.1-27.63,8.76-2.47,0-3.7-1.23-3.7-3.7Z"/>
    <path id="block-1-3" data-name="block-1" d="M418.15,35.77v43.91c0,.66-.09,1.11-.25,1.36-.17.25-.58.46-1.23.62-2.31.33-4.19,1.44-5.67,3.33-1.48,1.89-2.39,4.32-2.71,7.28,0,.99-.58,1.48-1.73,1.48h-43.91c-2.47,0-3.7-1.23-3.7-3.7.49-10.52,3.21-20.06,8.14-28.62,4.93-8.55,11.51-15.42,19.74-20.6,8.22-5.18,17.43-8.1,27.63-8.76,2.47,0,3.7,1.23,3.7,3.7Z"/>
  </g>
  <g id="letter-p">
    <path id="block-4-2" data-name="block-4" d="M434.43,61.8c5.26-8.63,12.21-15.58,20.85-20.85,8.63-5.26,18.05-8.22,28.25-8.88,2.47,0,3.7,1.23,3.7,3.7v43.91c0,1.15-.49,1.73-1.48,1.73-1.81.17-3.5.78-5.06,1.85-1.57,1.07-2.88,2.34-3.95,3.82-1.07,1.48-1.69,3.13-1.85,4.93,0,.66-.12,1.11-.37,1.36s-.7.37-1.36.37h-43.91c-2.47,0-3.7-1.23-3.7-3.7.65-10.2,3.62-19.61,8.88-28.25Z"/>
    <path id="block-3-3" data-name="block-3" d="M425.55,186.26v-86.34c0-2.47,1.23-3.7,3.7-3.7h43.91c1.15,0,1.73.58,1.73,1.73v88.32c0,2.47-1.23,3.7-3.7,3.7h-41.94c-2.47,0-3.7-1.23-3.7-3.7Z"/>
    <g id="block-2-4" data-name="block-2">
      <path d="M489.69,109.78c0,.82-.41,1.23-1.23,1.23h-1.23c-2.63,0-5.02-.57-7.15-1.73-2.14-1.15-3.91-2.79-5.3-4.93-1.4-2.14-2.18-4.44-2.34-6.91,0-.82.41-1.23,1.23-1.23s1.23.41,1.23,1.23c.16,1.97.82,3.82,1.97,5.55,1.15,1.73,2.63,3.08,4.44,4.07,1.81.99,3.78,1.48,5.92,1.48h1.23c.82,0,1.23.41,1.23,1.23Z"/>
      <path d="M551.37,99.91c-.66,10.2-3.62,19.61-8.88,28.25-5.26,8.63-12.21,15.58-20.85,20.85-8.63,5.26-18.05,8.23-28.25,8.88-2.47,0-3.7-1.23-3.7-3.7v-40.71c0-1.64-.83-2.47-2.47-2.47v-2.47h3.45c1.97-.16,3.74-.74,5.3-1.73,1.56-.99,2.88-2.3,3.95-3.95,1.07-1.64,1.77-3.45,2.1-5.43,0-.49.16-.82.49-.99.33-.16.74-.25,1.23-.25h43.91c2.47,0,3.7,1.23,3.7,3.7Z"/>
    </g>
    <path id="block-1-4" data-name="block-1" d="M521.64,40.95c8.64,5.27,15.58,12.21,20.85,20.85,5.26,8.63,8.22,18.05,8.88,28.25,0,2.47-1.23,3.7-3.7,3.7h-43.91c-1.15,0-1.73-.49-1.73-1.48-.17-1.81-.78-3.49-1.85-5.06-1.07-1.56-2.34-2.88-3.82-3.95-1.48-1.07-3.13-1.68-4.93-1.85-.66,0-1.11-.12-1.36-.37-.25-.25-.37-.7-.37-1.36v-43.91c0-2.47,1.23-3.7,3.7-3.7,10.2.66,19.61,3.62,28.25,8.88Z"/>
  </g>
  <g id="letter-a-2" data-name="letter-a">
    <path id="block-5-2" data-name="block-5" d="M620.44,35.77v43.91c0,.66-.12,1.11-.37,1.36s-.7.37-1.36.37c-1.81.17-3.45.78-4.93,1.85-1.48,1.07-2.76,2.39-3.82,3.95-1.07,1.57-1.69,3.25-1.85,5.06,0,.99-.58,1.48-1.73,1.48h-43.91c-2.47,0-3.7-1.23-3.7-3.7.65-10.2,3.62-19.61,8.88-28.25,5.26-8.63,12.21-15.58,20.85-20.85,8.63-5.26,18.05-8.22,28.25-8.88,2.47,0,3.7,1.23,3.7,3.7Z"/>
    <g id="block-4-3" data-name="block-4">
      <path d="M616.74,157.89c-10.2-.65-19.61-3.62-28.25-8.88-8.64-5.26-15.58-12.21-20.85-20.85-5.26-8.63-8.23-18.05-8.88-28.25,0-2.47,1.23-3.7,3.7-3.7h43.91c.66,0,1.11.12,1.36.37.25.25.37.7.37,1.36.33,1.81,1.03,3.5,2.1,5.06,1.07,1.57,2.38,2.84,3.95,3.82,1.56.99,3.33,1.57,5.3,1.73h3.45v2.47c-1.65,0-2.47.82-2.47,2.47v40.71c0,2.47-1.23,3.7-3.7,3.7Z"/>
      <path d="M620.44,109.78c0-.82.41-1.23,1.23-1.23h1.23c2.13,0,4.11-.49,5.92-1.48,1.81-.99,3.29-2.34,4.44-4.07,1.15-1.73,1.81-3.58,1.97-5.55,0-.82.41-1.23,1.23-1.23s1.23.41,1.23,1.23c-.17,2.47-.95,4.77-2.34,6.91-1.4,2.14-3.17,3.79-5.3,4.93-2.14,1.15-4.53,1.73-7.15,1.73h-1.23c-.82,0-1.23-.41-1.23-1.23Z"/>
    </g>
    <path id="block-3-4" data-name="block-3" d="M682.86,93.75h-46.13c-.99,0-1.48-.57-1.48-1.73-.33-1.81-.99-3.49-1.97-5.06-.99-1.56-2.26-2.84-3.82-3.82-1.57-.99-3.25-1.56-5.06-1.73-.99,0-1.48-.57-1.48-1.73v-43.91c0-2.47,1.23-3.7,3.7-3.7,10.52.66,20.14,3.74,28.86,9.25,8.72,5.51,15.67,12.7,20.85,21.59s7.93,18.59,8.26,29.11c0,1.15-.58,1.73-1.73,1.73Z"/>
    <path id="block-2-5" data-name="block-2" d="M635.25,154.19v-56.25c0-1.15.57-1.73,1.73-1.73h43.91c2.47,0,3.7,1.23,3.7,3.7v54.27c0,2.47-1.23,3.7-3.7,3.7h-41.94c-2.47,0-3.7-1.23-3.7-3.7Z"/>
    <path id="block-1-5" data-name="block-1" d="M683.35,32.07c.82,0,1.23.41,1.23,1.23v59.21c0,.82-.41,1.23-1.23,1.23s-1.23-.41-1.23-1.23v-59.21c0-.82.41-1.23,1.23-1.23Z"/>
  </g>
  <g id="letter-r-2" data-name="letter-r">
    <path id="block-3-5" data-name="block-3" d="M694.45,92.02c.33-10.52,3.08-20.23,8.26-29.11,5.18-8.88,12.13-16.07,20.85-21.59,8.72-5.51,18.34-8.59,28.86-9.25,2.47,0,3.7,1.23,3.7,3.7v44.65c0,.33-.09.62-.25.86-.17.25-.41.37-.74.37h-.74c-1.81.17-3.5.74-5.06,1.73-1.56.99-2.84,2.26-3.82,3.82-.99,1.57-1.57,3.33-1.73,5.3,0,.49-.17.82-.49.99-.33.17-.74.25-1.23.25h-45.89c-1.15,0-1.73-.57-1.73-1.73Z"/>
    <path id="block-2-6" data-name="block-2" d="M695.68,93.75c-.82,0-1.23-.41-1.23-1.23v-59.21c0-.82.41-1.23,1.23-1.23s1.23.41,1.23,1.23v59.21c0,.82-.41,1.23-1.23,1.23Z"/>
    <path id="block-1-6" data-name="block-1" d="M696.18,96.21h45.89c1.15,0,1.73.58,1.73,1.73v56.25c0,2.47-1.23,3.7-3.7,3.7h-41.94c-2.47,0-3.7-1.23-3.7-3.7v-56.25c0-1.15.57-1.73,1.73-1.73Z"/>
  </g>
  <g id="letter-z">
    <g id="block-1-7" data-name="block-1">
      <path d="M815.39,157.89h-47.04c-2.02-.73-2.54-2.26-2.46-4.26.28-6.49,1.15-12.89,2.96-19.14,4.66-16.05,14.57-27.36,30.29-33.36,9.57-3.65,19.56-4.91,29.74-4.96,2.76-.01,2.9-.09,3.79-2.6h2.4v50.88c-.51.91-1.32,1.1-2.31,1.09-3.38-.04-6.76-.05-10.04,1.05-5.68,1.91-7.71,7.29-7.33,11.3Z"/>
      <path id="path" d="M810.64,156.65c0-.82.41-1.23,1.23-1.23h21.96c.82,0,1.23.41,1.23,1.23s-.41,1.23-1.23,1.23h-21.96c-.82,0-1.23-.41-1.23-1.23Z"/>
      <path id="path-2" data-name="path" d="M765.99,77.71v-41.94c0-2.47,1.23-3.7,3.7-3.7h61.68c2.47,0,3.7,1.23,3.7,3.7v48.11h-2.47c0-1.64-.83-2.47-2.47-2.47h-60.44c-2.47,0-3.7-1.23-3.7-3.7Z"/>
      <path id="path-3" data-name="path" d="M833.83,108.79c-.82,0-1.23-.41-1.23-1.23V42.92c0-.82.41-1.23,1.23-1.23s1.23.41,1.23,1.23v64.64c0,.83-.41,1.23-1.23,1.23Z"/>
    </g>
  </g>
  <g id="letter-b">
    <path id="block-4-4" data-name="block-4" d="M0,74.36V3.35C0,1.5,1.5,0,3.35,0h43.43c1.41,0,2.56,1.15,2.56,2.56v70.21c0,1.32.53,2.11,1.58,2.37.51.13.89.54.89,1.06v.09c0,.78-.63,1.42-1.42,1.42H3.35c-1.85,0-3.35-1.5-3.35-3.35Z"/>
    <path id="block-3-6" data-name="block-3" d="M2.56,80.18h47.98c.7,0,1.26.57,1.26,1.26h0c0,.6-.38,1.16-.96,1.32-1.01.28-1.51,1.07-1.51,2.35v70.19c0,1.43-1.16,2.59-2.59,2.59H2.56c-1.42,0-2.56-1.15-2.56-2.56v-72.58c0-1.42,1.15-2.56,2.56-2.56Z"/>
    <g id="block-2-7" data-name="block-2">
      <rect id="path-4" data-name="path" x="46.87" y="75.24" width="37.01" height="2.47" rx="1.23" ry="1.23"/>
      <path id="path-5" data-name="path" d="M113.48,77.71h-48.35v-2.47c1.64,0,2.47-.82,2.47-2.47-.66-5.92-2.39-10.89-5.18-14.93-2.8-4.03-6.33-6.62-10.61-7.77-1.32-.13-2.11.37-2.37,1.5-.13.55-.57.97-1.14.97h-.22c-.67,0-1.21-.54-1.21-1.21V1.7c0-.93.77-1.7,1.7-1.68,12.63.25,23.95,3.33,33.95,9.23,10.44,6.17,18.71,14.84,24.79,26.03,6.08,11.19,9.37,24.09,9.87,38.73,0,2.47-1.23,3.7-3.7,3.7Z"/>
    </g>
    <g id="block-1-8" data-name="block-1">
      <rect id="path-6" data-name="path" x="48.66" y="80.18" width="52.73" height="2.47" rx="1.23" ry="1.23"/>
      <path id="path-7" data-name="path" d="M139.38,83.88c-.66,14.64-4.98,27.55-12.95,38.73-7.98,11.19-18.83,19.86-32.56,26.03-13.36,6-28.54,9.08-45.55,9.24-.79,0-1.45-.64-1.45-1.44v-47.16s0-2.03,0-2.03c0-.79.64-1.43,1.43-1.43h0c.56,0,1.01.42,1.14.97.26,1.13,1.05,1.63,2.37,1.5,6.74-.33,12.79-1.52,18.13-3.58,5.34-2.05,9.7-4.77,13.08-8.14,3.37-3.37,5.55-7.19,6.54-11.47.13-1.31-.37-2.1-1.5-2.37-.55-.13-.97-.57-.97-1.14h0c0-.79.64-1.43,1.43-1.43h47.17c2.47,0,3.7,1.23,3.7,3.7Z"/>
    </g>
  </g>
</svg>